<svg xmlns="http://www.w3.org/2000/svg" viewBox="0 0 64 64">
  <rect width="64" height="64" fill="#0a0a0a"/>
  <rect x="8" y="8" width="8" height="8" fill="#ffffff"/>
  <rect x="20" y="8" width="8" height="8" fill="#0a0a0a"/>
  <rect x="32" y="8" width="8" height="8" fill="#ffffff"/>
  <rect x="44" y="8" width="8" height="8" fill="#0a0a0a"/>
  <rect x="8" y="20" width="8" height="8" fill="#0a0a0a"/>
  <rect x="20" y="20" width="8" height="8" fill="#ffffff"/>
  <rect x="32" y="20" width="8" height="8" fill="#0a0a0a"/>
  <rect x="44" y="20" width="8" height="8" fill="#ffffff"/>
  <rect x="8" y="32" width="8" height="8" fill="#ffffff"/>
  <rect x="20" y="32" width="8" height="8" fill="#0a0a0a"/>
  <rect x="32" y="32" width="8" height="8" fill="#ffffff"/>
  <rect x="44" y="32" width="8" height="8" fill="#0a0a0a"/>
  <rect x="8" y="44" width="8" height="8" fill="#0a0a0a"/>
  <rect x="20" y="44" width="8" height="8" fill="#ffffff"/>
  <rect x="32" y="44" width="8" height="8" fill="#0a0a0a"/>
  <rect x="44" y="44" width="8" height="8" fill="#ffffff"/>
  <!-- Accent stripe -->
  <rect x="2" y="6" width="3" height="52" fill="#00ff94" rx="1"/>
</svg>